<svg xmlns="http://www.w3.org/2000/svg" xmlns:xlink="http://www.w3.org/1999/xlink" viewBox="0 0 2370.33 688.23"><defs><style>.cls-1{fill:none;}.cls-2{fill:#be3d3c;}.cls-3{clip-path:url(#clip-path);}.cls-4{opacity:0.3;}.cls-5{fill:#8c2b29;}.cls-6{fill:#3c1a1a;}.cls-7{fill:#732324;}.cls-8{fill:#4c1a1c;}.cls-9{fill:#571a1d;}</style><clipPath id="clip-path" transform="translate(470.41 92.53)"><rect class="cls-1" x="-0.27" y="-92.32" width="1741.59" height="686.97"/></clipPath></defs><title>aanbod</title><g id="Homepagina"><rect class="cls-2" x="469.91" y="1.42" width="1741.59" height="685.83"/><g class="cls-3"><g class="cls-4"><polygon class="cls-5" points="1524.42 0 2253.42 299.91 2365.75 134.96 2365.75 0.51 1524.42 0"/><polygon class="cls-6" points="2369.14 686.25 2370.33 353.23 2253.42 299.91 2230.49 687.83 2369.14 686.25"/><polygon class="cls-7" points="2365.75 134.96 2370.33 353.23 2253.42 299.91 2365.75 134.96"/><polygon class="cls-8" points="825.22 454.87 1677.1 654.32 1632.16 686.95 947.24 688.23 825.22 454.87"/><polygon class="cls-8" points="2253.42 299.91 1676.82 654.27 1632.16 688.23 2230.49 688.23 2253.42 299.91"/><polygon class="cls-7" points="2.63 0.51 443.55 1.97 212.54 485.03 5.82 79.71 2.63 0.51"/><polygon class="cls-8" points="2.63 683.7 212.54 485.03 5.82 79.71 2.63 683.7"/><polygon class="cls-6" points="825.22 454.87 589.93 687.22 949.01 688.23 825.22 454.87"/><polygon class="cls-5" points="607.99 0.06 825.22 454.87 1131.69 0.06 607.99 0.06"/><polygon class="cls-7" points="1131.69 0.06 1524.42 0.06 825.22 454.87 1131.69 0.06"/><polygon class="cls-9" points="212.54 485.03 825.22 454.87 607.99 0.06 443.55 0.06 212.54 485.03"/><polygon class="cls-6" points="212.54 485.03 247.69 686.81 0 686.81 212.54 485.03"/><polygon class="cls-8" points="589.93 687.22 247.69 688.08 212.54 483.58 825.22 454.87 589.93 687.22"/><polygon class="cls-9" points="1524.42 0.06 1677.1 654.32 825.22 454.87 1524.42 0.06"/><polygon class="cls-7" points="2253.42 299.91 1524.42 0.06 1677.1 654.32 2253.42 299.91"/></g></g></g></svg>