<svg xmlns="http://www.w3.org/2000/svg" xmlns:xlink="http://www.w3.org/1999/xlink" viewBox="0 0 1740.28 505.29"><defs><style>.cls-1{fill:none;}.cls-2{fill:#be3d3c;}.cls-3{clip-path:url(#clip-path);}.cls-4{opacity:0.3;}.cls-5{fill:#8c2b29;}.cls-6{fill:#3c1a1a;}.cls-7{fill:#732324;}.cls-8{fill:#4c1a1c;}.cls-9{fill:#571a1d;}</style><clipPath id="clip-path" transform="translate(345.51 1.17)"><rect class="cls-1" x="-0.33" y="-1.01" width="1278.66" height="504.37"/></clipPath></defs><title>aanbod</title><g id="Homepagina"><rect class="cls-2" x="345" y="1.04" width="1278.66" height="503.53"/><g class="cls-3"><g class="cls-4"><polygon class="cls-5" points="1119.21 0 1654.44 220.19 1736.91 99.09 1736.91 0.38 1119.21 0"/><polygon class="cls-6" points="1739.4 503.84 1740.28 259.34 1654.44 220.19 1637.61 505 1739.4 503.84"/><polygon class="cls-7" points="1736.91 99.09 1740.28 259.34 1654.44 220.19 1736.91 99.09"/><polygon class="cls-8" points="605.87 333.96 1231.32 480.4 1198.32 504.36 695.46 505.29 605.87 333.96"/><polygon class="cls-8" points="1654.44 220.19 1231.11 480.36 1198.32 505.29 1637.61 505.29 1654.44 220.19"/><polygon class="cls-7" points="1.93 0.38 325.65 1.45 156.05 356.11 4.27 58.52 1.93 0.38"/><polygon class="cls-8" points="1.93 501.97 156.05 356.11 4.27 58.52 1.93 501.97"/><polygon class="cls-6" points="605.87 333.96 433.12 504.55 696.76 505.29 605.87 333.96"/><polygon class="cls-5" points="446.38 0.05 605.87 333.96 830.88 0.05 446.38 0.05"/><polygon class="cls-7" points="830.88 0.05 1119.21 0.05 605.87 333.96 830.88 0.05"/><polygon class="cls-9" points="156.05 356.11 605.87 333.96 446.38 0.05 325.65 0.05 156.05 356.11"/><polygon class="cls-6" points="156.05 356.11 181.85 504.25 0 504.25 156.05 356.11"/><polygon class="cls-8" points="433.12 504.55 181.85 505.19 156.05 355.04 605.87 333.96 433.12 504.55"/><polygon class="cls-9" points="1119.21 0.05 1231.32 480.4 605.87 333.96 1119.21 0.05"/><polygon class="cls-7" points="1654.44 220.19 1119.21 0.05 1231.32 480.4 1654.44 220.19"/></g></g></g></svg>