<svg xmlns="http://www.w3.org/2000/svg" xmlns:xlink="http://www.w3.org/1999/xlink" viewBox="0 0 2580 1014.4"><defs><style>.cls-1{fill:none;}.cls-2{fill:#be3d3c;}.cls-3{clip-path:url(#clip-path);}.cls-4{opacity:0.3;}.cls-5{fill:#8c2b29;}.cls-6{fill:#4c1a1c;}.cls-7{fill:#3c1a1a;}.cls-8{fill:#732324;}.cls-9{fill:#571a1d;}</style><clipPath id="clip-path"><rect class="cls-1" x="0.96" y="-2.34" width="2581.16" height="1018.14"/></clipPath></defs><title>Tekengebied 1-100</title><g id="Homepagina"><rect class="cls-2" x="0.61" y="-0.56" width="2581.16" height="1016.46"/><g class="cls-3"><g class="cls-4"><polygon class="cls-5" points="1563.47 -2.66 2643.9 441.83 2810.38 197.36 2810.38 -1.91 1563.47 -2.66"/><polygon class="cls-6" points="527.21 671.48 1789.76 967.09 1723.15 1015.45 708.05 1017.34 527.21 671.48"/><polygon class="cls-6" points="2643.9 441.83 1789.33 967.01 1723.15 1017.34 2609.92 1017.34 2643.9 441.83"/><polygon class="cls-7" points="527.21 671.48 178.49 1015.84 710.68 1017.34 527.21 671.48"/><polygon class="cls-5" points="205.25 -2.57 527.21 671.48 981.42 -2.57 205.25 -2.57"/><polygon class="cls-8" points="981.42 -2.57 1563.47 -2.57 527.21 671.48 981.42 -2.57"/><polygon class="cls-9" points="-380.82 716.19 527.21 671.48 205.25 -2.57 -38.45 -2.57 -380.82 716.19"/><polygon class="cls-6" points="178.49 1015.84 -328.74 1017.13 -380.82 714.04 527.21 671.48 178.49 1015.84"/><polygon class="cls-9" points="1563.47 -2.57 1789.76 967.09 527.21 671.48 1563.47 -2.57"/><polygon class="cls-8" points="2643.9 441.83 1563.47 -2.57 1789.76 967.09 2643.9 441.83"/></g></g></g></svg>